<?xml version="1.0" encoding="us-ascii" standalone="no"?><svg xmlns="http://www.w3.org/2000/svg" xmlns:xlink="http://www.w3.org/1999/xlink" contentStyleType="text/css" height="818px" preserveAspectRatio="none" style="width:1854px;height:818px;background:#FFFFFF;" version="1.1" viewBox="0 0 1854 818" width="1854px" zoomAndPan="magnify"><defs/><g><text fill="#000000" font-family="sans-serif" font-size="14" font-weight="bold" lengthAdjust="spacing" textLength="249" x="795.5" y="23.5352">Rental Car Booking Class Diagram</text><!--cluster Rental Car System--><g id="cluster_Rental Car System"><path d="M8.5,43.4883 L141.5,43.4883 A3.75,3.75 0 0 1 144,45.9883 L151,65.9766 L1844.5,65.9766 A2.5,2.5 0 0 1 1847,68.4766 L1847,808.9883 A2.5,2.5 0 0 1 1844.5,811.4883 L8.5,811.4883 A2.5,2.5 0 0 1 6,808.9883 L6,45.9883 A2.5,2.5 0 0 1 8.5,43.4883 " fill="none" style="stroke:#000000;stroke-width:1.5;"/><line style="stroke:#000000;stroke-width:1.5;" x1="6" x2="151" y1="65.9766" y2="65.9766"/><text fill="#000000" font-family="sans-serif" font-size="14" font-weight="bold" lengthAdjust="spacing" textLength="132" x="10" y="59.0234">Rental Car System</text></g><!--class App--><g id="elem_App"><rect codeLine="8" fill="#F1F1F1" height="56.6211" id="App" rx="2.5" ry="2.5" style="stroke:#181818;stroke-width:0.5;" width="130" x="22" y="406.1783"/><ellipse cx="37" cy="426.4888" fill="#ADD1B2" rx="11" ry="11" style="stroke:#181818;stroke-width:1.0;"/><path d="M39.4731,432.6319 Q38.8921,432.9307 38.2529,433.0801 Q37.6138,433.2296 36.9082,433.2296 Q34.4014,433.2296 33.0815,431.5777 Q31.7617,429.9258 31.7617,426.8047 Q31.7617,423.6754 33.0815,422.0235 Q34.4014,420.3716 36.9082,420.3716 Q37.6138,420.3716 38.2612,420.5211 Q38.9087,420.6705 39.4731,420.9693 L39.4731,423.692 Q38.8423,423.1109 38.2488,422.8411 Q37.6553,422.5713 37.0244,422.5713 Q35.6797,422.5713 34.9949,423.638 Q34.3101,424.7046 34.3101,426.8047 Q34.3101,428.8965 34.9949,429.9632 Q35.6797,431.0298 37.0244,431.0298 Q37.6553,431.0298 38.2488,430.7601 Q38.8423,430.4903 39.4731,429.9092 Z " fill="#000000"/><text fill="#000000" font-family="sans-serif" font-size="12" font-style="italic" lengthAdjust="spacing" textLength="76" x="62" y="422.7798">&#171;Application&#187;</text><text fill="#000000" font-family="sans-serif" font-size="14" lengthAdjust="spacing" textLength="98" x="51" y="438.8463">rental-car-api</text><line style="stroke:#181818;stroke-width:0.5;" x1="23" x2="151" y1="446.7994" y2="446.7994"/><line style="stroke:#181818;stroke-width:0.5;" x1="23" x2="151" y1="454.7994" y2="454.7994"/></g><!--class AuthRegister--><g id="elem_AuthRegister"><rect codeLine="12" fill="#F1F1F1" height="73.1094" id="AuthRegister" rx="2.5" ry="2.5" style="stroke:#181818;stroke-width:0.5;" width="183" x="485" y="721.9383"/><ellipse cx="541.75" cy="742.2488" fill="#ADD1B2" rx="11" ry="11" style="stroke:#181818;stroke-width:1.0;"/><path d="M544.2231,748.3919 Q543.6421,748.6907 543.0029,748.8401 Q542.3638,748.9896 541.6582,748.9896 Q539.1514,748.9896 537.8315,747.3377 Q536.5117,745.6858 536.5117,742.5647 Q536.5117,739.4354 537.8315,737.7835 Q539.1514,736.1316 541.6582,736.1316 Q542.3638,736.1316 543.0112,736.2811 Q543.6587,736.4305 544.2231,736.7293 L544.2231,739.452 Q543.5923,738.8709 542.9988,738.6011 Q542.4053,738.3313 541.7744,738.3313 Q540.4297,738.3313 539.7449,739.398 Q539.0601,740.4646 539.0601,742.5647 Q539.0601,744.6565 539.7449,745.7232 Q540.4297,746.7898 541.7744,746.7898 Q542.4053,746.7898 542.9988,746.5201 Q543.5923,746.2503 544.2231,745.6692 Z " fill="#000000"/><text fill="#000000" font-family="sans-serif" font-size="12" font-style="italic" lengthAdjust="spacing" textLength="65" x="560.25" y="738.5398">&#171;Resource&#187;</text><text fill="#000000" font-family="sans-serif" font-size="14" lengthAdjust="spacing" textLength="33" x="576.25" y="754.6063">Auth</text><line style="stroke:#181818;stroke-width:0.5;" x1="486" x2="667" y1="762.5594" y2="762.5594"/><line style="stroke:#181818;stroke-width:0.5;" x1="486" x2="667" y1="770.5594" y2="770.5594"/><text fill="#000000" font-family="sans-serif" font-size="14" lengthAdjust="spacing" textLength="171" x="491" y="788.0945">&#171;POST&#187; +register() : User</text></g><!--class AuthLogin--><g id="elem_AuthLogin"><rect codeLine="16" fill="#F1F1F1" height="73.1094" id="AuthLogin" rx="2.5" ry="2.5" style="stroke:#181818;stroke-width:0.5;" width="165" x="494" y="613.9383"/><ellipse cx="541.75" cy="634.2488" fill="#ADD1B2" rx="11" ry="11" style="stroke:#181818;stroke-width:1.0;"/><path d="M544.2231,640.3919 Q543.6421,640.6907 543.0029,640.8401 Q542.3638,640.9896 541.6582,640.9896 Q539.1514,640.9896 537.8315,639.3377 Q536.5117,637.6858 536.5117,634.5647 Q536.5117,631.4354 537.8315,629.7835 Q539.1514,628.1316 541.6582,628.1316 Q542.3638,628.1316 543.0112,628.2811 Q543.6587,628.4305 544.2231,628.7293 L544.2231,631.452 Q543.5923,630.8709 542.9988,630.6011 Q542.4053,630.3313 541.7744,630.3313 Q540.4297,630.3313 539.7449,631.398 Q539.0601,632.4646 539.0601,634.5647 Q539.0601,636.6565 539.7449,637.7232 Q540.4297,638.7898 541.7744,638.7898 Q542.4053,638.7898 542.9988,638.5201 Q543.5923,638.2503 544.2231,637.6692 Z " fill="#000000"/><text fill="#000000" font-family="sans-serif" font-size="12" font-style="italic" lengthAdjust="spacing" textLength="65" x="560.25" y="630.5398">&#171;Resource&#187;</text><text fill="#000000" font-family="sans-serif" font-size="14" lengthAdjust="spacing" textLength="33" x="576.25" y="646.6063">Auth</text><line style="stroke:#181818;stroke-width:0.5;" x1="495" x2="658" y1="654.5594" y2="654.5594"/><line style="stroke:#181818;stroke-width:0.5;" x1="495" x2="658" y1="662.5594" y2="662.5594"/><text fill="#000000" font-family="sans-serif" font-size="14" lengthAdjust="spacing" textLength="153" x="500" y="680.0945">&#171;POST&#187; +login() : User</text></g><!--class AuthLogout--><g id="elem_AuthLogout"><rect codeLine="20" fill="#F1F1F1" height="73.1094" id="AuthLogout" rx="2.5" ry="2.5" style="stroke:#181818;stroke-width:0.5;" width="164" x="494.5" y="505.9383"/><ellipse cx="541.75" cy="526.2488" fill="#ADD1B2" rx="11" ry="11" style="stroke:#181818;stroke-width:1.0;"/><path d="M544.2231,532.3919 Q543.6421,532.6907 543.0029,532.8401 Q542.3638,532.9896 541.6582,532.9896 Q539.1514,532.9896 537.8315,531.3377 Q536.5117,529.6858 536.5117,526.5647 Q536.5117,523.4354 537.8315,521.7835 Q539.1514,520.1316 541.6582,520.1316 Q542.3638,520.1316 543.0112,520.2811 Q543.6587,520.4305 544.2231,520.7293 L544.2231,523.452 Q543.5923,522.8709 542.9988,522.6011 Q542.4053,522.3313 541.7744,522.3313 Q540.4297,522.3313 539.7449,523.398 Q539.0601,524.4646 539.0601,526.5647 Q539.0601,528.6565 539.7449,529.7232 Q540.4297,530.7898 541.7744,530.7898 Q542.4053,530.7898 542.9988,530.5201 Q543.5923,530.2503 544.2231,529.6692 Z " fill="#000000"/><text fill="#000000" font-family="sans-serif" font-size="12" font-style="italic" lengthAdjust="spacing" textLength="65" x="560.25" y="522.5398">&#171;Resource&#187;</text><text fill="#000000" font-family="sans-serif" font-size="14" lengthAdjust="spacing" textLength="33" x="576.25" y="538.6063">Auth</text><line style="stroke:#181818;stroke-width:0.5;" x1="495.5" x2="657.5" y1="546.5594" y2="546.5594"/><line style="stroke:#181818;stroke-width:0.5;" x1="495.5" x2="657.5" y1="554.5594" y2="554.5594"/><text fill="#000000" font-family="sans-serif" font-size="14" lengthAdjust="spacing" textLength="152" x="500.5" y="572.0945">&#171;GET&#187; +logout() : void</text></g><!--class AuthMe--><g id="elem_AuthMe"><rect codeLine="24" fill="#F1F1F1" height="73.1094" id="AuthMe" rx="2.5" ry="2.5" style="stroke:#181818;stroke-width:0.5;" width="163" x="495" y="397.9383"/><ellipse cx="541.75" cy="418.2488" fill="#ADD1B2" rx="11" ry="11" style="stroke:#181818;stroke-width:1.0;"/><path d="M544.2231,424.3919 Q543.6421,424.6907 543.0029,424.8401 Q542.3638,424.9896 541.6582,424.9896 Q539.1514,424.9896 537.8315,423.3377 Q536.5117,421.6858 536.5117,418.5647 Q536.5117,415.4354 537.8315,413.7835 Q539.1514,412.1316 541.6582,412.1316 Q542.3638,412.1316 543.0112,412.2811 Q543.6587,412.4305 544.2231,412.7293 L544.2231,415.452 Q543.5923,414.8709 542.9988,414.6011 Q542.4053,414.3313 541.7744,414.3313 Q540.4297,414.3313 539.7449,415.398 Q539.0601,416.4646 539.0601,418.5647 Q539.0601,420.6565 539.7449,421.7232 Q540.4297,422.7898 541.7744,422.7898 Q542.4053,422.7898 542.9988,422.5201 Q543.5923,422.2503 544.2231,421.6692 Z " fill="#000000"/><text fill="#000000" font-family="sans-serif" font-size="12" font-style="italic" lengthAdjust="spacing" textLength="65" x="560.25" y="414.5398">&#171;Resource&#187;</text><text fill="#000000" font-family="sans-serif" font-size="14" lengthAdjust="spacing" textLength="33" x="576.25" y="430.6063">Auth</text><line style="stroke:#181818;stroke-width:0.5;" x1="496" x2="657" y1="438.5594" y2="438.5594"/><line style="stroke:#181818;stroke-width:0.5;" x1="496" x2="657" y1="446.5594" y2="446.5594"/><text fill="#000000" font-family="sans-serif" font-size="14" lengthAdjust="spacing" textLength="151" x="501" y="464.0945">&#171;GET&#187; +getMe() : User</text></g><!--class AuthResetPassword--><g id="elem_AuthResetPassword"><rect codeLine="28" fill="#F1F1F1" height="73.1094" id="AuthResetPassword" rx="2.5" ry="2.5" style="stroke:#181818;stroke-width:0.5;" width="227" x="463" y="289.9383"/><ellipse cx="541.75" cy="310.2488" fill="#ADD1B2" rx="11" ry="11" style="stroke:#181818;stroke-width:1.0;"/><path d="M544.2231,316.3919 Q543.6421,316.6907 543.0029,316.8401 Q542.3638,316.9896 541.6582,316.9896 Q539.1514,316.9896 537.8315,315.3377 Q536.5117,313.6858 536.5117,310.5647 Q536.5117,307.4354 537.8315,305.7835 Q539.1514,304.1316 541.6582,304.1316 Q542.3638,304.1316 543.0112,304.2811 Q543.6587,304.4305 544.2231,304.7293 L544.2231,307.452 Q543.5923,306.8709 542.9988,306.6011 Q542.4053,306.3313 541.7744,306.3313 Q540.4297,306.3313 539.7449,307.398 Q539.0601,308.4646 539.0601,310.5647 Q539.0601,312.6565 539.7449,313.7232 Q540.4297,314.7898 541.7744,314.7898 Q542.4053,314.7898 542.9988,314.5201 Q543.5923,314.2503 544.2231,313.6692 Z " fill="#000000"/><text fill="#000000" font-family="sans-serif" font-size="12" font-style="italic" lengthAdjust="spacing" textLength="65" x="560.25" y="306.5398">&#171;Resource&#187;</text><text fill="#000000" font-family="sans-serif" font-size="14" lengthAdjust="spacing" textLength="33" x="576.25" y="322.6063">Auth</text><line style="stroke:#181818;stroke-width:0.5;" x1="464" x2="689" y1="330.5594" y2="330.5594"/><line style="stroke:#181818;stroke-width:0.5;" x1="464" x2="689" y1="338.5594" y2="338.5594"/><text fill="#000000" font-family="sans-serif" font-size="14" lengthAdjust="spacing" textLength="215" x="469" y="356.0945">&#171;POST&#187; +resetPassword() : void</text></g><!--class CarRentals--><g id="elem_CarRentals"><rect codeLine="34" fill="#F1F1F1" height="89.5977" id="CarRentals" rx="2.5" ry="2.5" style="stroke:#181818;stroke-width:0.5;" width="275" x="439" y="165.6883"/><ellipse cx="535.25" cy="185.9988" fill="#ADD1B2" rx="11" ry="11" style="stroke:#181818;stroke-width:1.0;"/><path d="M537.7231,192.1419 Q537.1421,192.4407 536.5029,192.5901 Q535.8638,192.7396 535.1582,192.7396 Q532.6514,192.7396 531.3315,191.0877 Q530.0117,189.4358 530.0117,186.3147 Q530.0117,183.1854 531.3315,181.5335 Q532.6514,179.8816 535.1582,179.8816 Q535.8638,179.8816 536.5112,180.0311 Q537.1587,180.1805 537.7231,180.4793 L537.7231,183.202 Q537.0923,182.6209 536.4988,182.3511 Q535.9053,182.0813 535.2744,182.0813 Q533.9297,182.0813 533.2449,183.148 Q532.5601,184.2146 532.5601,186.3147 Q532.5601,188.4065 533.2449,189.4732 Q533.9297,190.5398 535.2744,190.5398 Q535.9053,190.5398 536.4988,190.2701 Q537.0923,190.0003 537.7231,189.4192 Z " fill="#000000"/><text fill="#000000" font-family="sans-serif" font-size="12" font-style="italic" lengthAdjust="spacing" textLength="65" x="560.25" y="182.2898">&#171;Resource&#187;</text><text fill="#000000" font-family="sans-serif" font-size="14" lengthAdjust="spacing" textLength="74" x="555.75" y="198.3563">CarRentals</text><line style="stroke:#181818;stroke-width:0.5;" x1="440" x2="713" y1="206.3094" y2="206.3094"/><line style="stroke:#181818;stroke-width:0.5;" x1="440" x2="713" y1="214.3094" y2="214.3094"/><text fill="#000000" font-family="sans-serif" font-size="14" lengthAdjust="spacing" textLength="241" x="445" y="231.8445">&#171;GET&#187; +getCarRentals() : CarRental</text><text fill="#000000" font-family="sans-serif" font-size="14" lengthAdjust="spacing" textLength="263" x="445" y="248.3328">&#171;POST&#187; +createCarRental() : CarRental</text></g><!--class CarRental--><g id="elem_CarRental"><rect codeLine="72" fill="#F1F1F1" height="221.5039" id="CarRental" rx="2.5" ry="2.5" style="stroke:#181818;stroke-width:0.5;" width="272" x="848" y="319.7383"/><ellipse cx="932.25" cy="340.0488" fill="#ADD1B2" rx="11" ry="11" style="stroke:#181818;stroke-width:1.0;"/><path d="M934.7231,346.1919 Q934.1421,346.4907 933.5029,346.6401 Q932.8638,346.7896 932.1582,346.7896 Q929.6514,346.7896 928.3315,345.1377 Q927.0117,343.4858 927.0117,340.3647 Q927.0117,337.2354 928.3315,335.5835 Q929.6514,333.9316 932.1582,333.9316 Q932.8638,333.9316 933.5112,334.0811 Q934.1587,334.2305 934.7231,334.5293 L934.7231,337.252 Q934.0923,336.6709 933.4988,336.4011 Q932.9053,336.1313 932.2744,336.1313 Q930.9297,336.1313 930.2449,337.198 Q929.5601,338.2646 929.5601,340.3647 Q929.5601,342.4565 930.2449,343.5232 Q930.9297,344.5898 932.2744,344.5898 Q932.9053,344.5898 933.4988,344.3201 Q934.0923,344.0503 934.7231,343.4692 Z " fill="#000000"/><text fill="#000000" font-family="sans-serif" font-size="12" font-style="italic" lengthAdjust="spacing" textLength="99" x="950.75" y="336.3398">&#171;Representation&#187;</text><text fill="#000000" font-family="sans-serif" font-size="14" lengthAdjust="spacing" textLength="67" x="966.75" y="352.4063">CarRental</text><line style="stroke:#181818;stroke-width:0.5;" x1="849" x2="1119" y1="360.3594" y2="360.3594"/><text fill="#000000" font-family="sans-serif" font-size="14" lengthAdjust="spacing" textLength="46" x="854" y="377.8945">-name</text><text fill="#000000" font-family="sans-serif" font-size="14" lengthAdjust="spacing" textLength="62" x="854" y="394.3828">-address</text><text fill="#000000" font-family="sans-serif" font-size="14" lengthAdjust="spacing" textLength="55" x="854" y="410.8711">-district</text><text fill="#000000" font-family="sans-serif" font-size="14" lengthAdjust="spacing" textLength="67" x="854" y="427.3594">-province</text><text fill="#000000" font-family="sans-serif" font-size="14" lengthAdjust="spacing" textLength="83" x="854" y="443.8477">-postalcode</text><text fill="#000000" font-family="sans-serif" font-size="14" lengthAdjust="spacing" textLength="25" x="854" y="460.3359">-tel</text><text fill="#000000" font-family="sans-serif" font-size="14" lengthAdjust="spacing" textLength="53" x="854" y="476.8242">-region</text><line style="stroke:#181818;stroke-width:0.5;" x1="849" x2="1119" y1="483.7773" y2="483.7773"/><text fill="#000000" font-family="sans-serif" font-size="14" lengthAdjust="spacing" textLength="234" x="854" y="501.3125">&#171;GET&#187; +getCarRental() : CarRental</text><text fill="#000000" font-family="sans-serif" font-size="14" lengthAdjust="spacing" textLength="260" x="854" y="517.8008">&#171;PUT&#187; +updateCarRental() : CarRental</text><text fill="#000000" font-family="sans-serif" font-size="14" lengthAdjust="spacing" textLength="239" x="854" y="534.2891">&#171;DELETE&#187; +deleteCarRental() : void</text></g><!--class Rents--><g id="elem_Rents"><rect codeLine="47" fill="#F1F1F1" height="89.5977" id="Rents" rx="2.5" ry="2.5" style="stroke:#181818;stroke-width:0.5;" width="203" x="882.5" y="78.6883"/><ellipse cx="949.25" cy="98.9988" fill="#ADD1B2" rx="11" ry="11" style="stroke:#181818;stroke-width:1.0;"/><path d="M951.7231,105.1419 Q951.1421,105.4407 950.5029,105.5901 Q949.8638,105.7396 949.1582,105.7396 Q946.6514,105.7396 945.3315,104.0877 Q944.0117,102.4358 944.0117,99.3147 Q944.0117,96.1854 945.3315,94.5335 Q946.6514,92.8816 949.1582,92.8816 Q949.8638,92.8816 950.5112,93.0311 Q951.1587,93.1805 951.7231,93.4793 L951.7231,96.202 Q951.0923,95.6209 950.4988,95.3511 Q949.9053,95.0813 949.2744,95.0813 Q947.9297,95.0813 947.2449,96.148 Q946.5601,97.2146 946.5601,99.3147 Q946.5601,101.4065 947.2449,102.4732 Q947.9297,103.5398 949.2744,103.5398 Q949.9053,103.5398 950.4988,103.2701 Q951.0923,103.0003 951.7231,102.4192 Z " fill="#000000"/><text fill="#000000" font-family="sans-serif" font-size="12" font-style="italic" lengthAdjust="spacing" textLength="65" x="967.75" y="95.2898">&#171;Resource&#187;</text><text fill="#000000" font-family="sans-serif" font-size="14" lengthAdjust="spacing" textLength="38" x="981.25" y="111.3563">Rents</text><line style="stroke:#181818;stroke-width:0.5;" x1="883.5" x2="1084.5" y1="119.3094" y2="119.3094"/><line style="stroke:#181818;stroke-width:0.5;" x1="883.5" x2="1084.5" y1="127.3094" y2="127.3094"/><text fill="#000000" font-family="sans-serif" font-size="14" lengthAdjust="spacing" textLength="169" x="888.5" y="144.8445">&#171;GET&#187; +getRents() : Rent</text><text fill="#000000" font-family="sans-serif" font-size="14" lengthAdjust="spacing" textLength="191" x="888.5" y="161.3328">&#171;POST&#187; +createRent() : Rent</text></g><!--class Rent--><g id="elem_Rent"><rect codeLine="82" fill="#F1F1F1" height="205.0156" id="Rent" rx="2.5" ry="2.5" style="stroke:#181818;stroke-width:0.5;" width="215" x="1390" y="165.9783"/><ellipse cx="1445.75" cy="186.2888" fill="#ADD1B2" rx="11" ry="11" style="stroke:#181818;stroke-width:1.0;"/><path d="M1448.2231,192.4319 Q1447.6421,192.7307 1447.0029,192.8801 Q1446.3638,193.0296 1445.6582,193.0296 Q1443.1514,193.0296 1441.8315,191.3777 Q1440.5117,189.7258 1440.5117,186.6047 Q1440.5117,183.4754 1441.8315,181.8235 Q1443.1514,180.1716 1445.6582,180.1716 Q1446.3638,180.1716 1447.0112,180.3211 Q1447.6587,180.4705 1448.2231,180.7693 L1448.2231,183.492 Q1447.5923,182.9109 1446.9988,182.6411 Q1446.4053,182.3713 1445.7744,182.3713 Q1444.4297,182.3713 1443.7449,183.438 Q1443.0601,184.5046 1443.0601,186.6047 Q1443.0601,188.6965 1443.7449,189.7632 Q1444.4297,190.8298 1445.7744,190.8298 Q1446.4053,190.8298 1446.9988,190.5601 Q1447.5923,190.2903 1448.2231,189.7092 Z " fill="#000000"/><text fill="#000000" font-family="sans-serif" font-size="12" font-style="italic" lengthAdjust="spacing" textLength="99" x="1464.25" y="182.5798">&#171;Representation&#187;</text><text fill="#000000" font-family="sans-serif" font-size="14" lengthAdjust="spacing" textLength="31" x="1498.25" y="198.6463">Rent</text><line style="stroke:#181818;stroke-width:0.5;" x1="1391" x2="1604" y1="206.5994" y2="206.5994"/><text fill="#000000" font-family="sans-serif" font-size="14" lengthAdjust="spacing" textLength="70" x="1396" y="224.1345">-startDate</text><text fill="#000000" font-family="sans-serif" font-size="14" lengthAdjust="spacing" textLength="65" x="1396" y="240.6228">-endDate</text><text fill="#000000" font-family="sans-serif" font-size="14" lengthAdjust="spacing" textLength="38" x="1396" y="257.1111">-user</text><text fill="#000000" font-family="sans-serif" font-size="14" lengthAdjust="spacing" textLength="72" x="1396" y="273.5994">-carRental</text><text fill="#000000" font-family="sans-serif" font-size="14" lengthAdjust="spacing" textLength="29" x="1396" y="290.0877">-car</text><text fill="#000000" font-family="sans-serif" font-size="14" lengthAdjust="spacing" textLength="74" x="1396" y="306.5759">-createdAt</text><line style="stroke:#181818;stroke-width:0.5;" x1="1391" x2="1604" y1="313.5291" y2="313.5291"/><text fill="#000000" font-family="sans-serif" font-size="14" lengthAdjust="spacing" textLength="162" x="1396" y="331.0642">&#171;GET&#187; +getRent() : Rent</text><text fill="#000000" font-family="sans-serif" font-size="14" lengthAdjust="spacing" textLength="188" x="1396" y="347.5525">&#171;PUT&#187; +updateRent() : Rent</text><text fill="#000000" font-family="sans-serif" font-size="14" lengthAdjust="spacing" textLength="203" x="1396" y="364.0408">&#171;DELETE&#187; +deleteRent() : void</text></g><!--class NestedRents--><g id="elem_NestedRents"><rect codeLine="58" fill="#F1F1F1" height="89.5977" id="NestedRents" rx="2.5" ry="2.5" style="stroke:#181818;stroke-width:0.5;" width="293" x="1351" y="489.6883"/><ellipse cx="1462.75" cy="509.9988" fill="#ADD1B2" rx="11" ry="11" style="stroke:#181818;stroke-width:1.0;"/><path d="M1465.2231,516.1419 Q1464.6421,516.4407 1464.0029,516.5901 Q1463.3638,516.7396 1462.6582,516.7396 Q1460.1514,516.7396 1458.8315,515.0877 Q1457.5117,513.4358 1457.5117,510.3147 Q1457.5117,507.1854 1458.8315,505.5335 Q1460.1514,503.8816 1462.6582,503.8816 Q1463.3638,503.8816 1464.0112,504.0311 Q1464.6587,504.1805 1465.2231,504.4793 L1465.2231,507.202 Q1464.5923,506.6209 1463.9988,506.3511 Q1463.4053,506.0813 1462.7744,506.0813 Q1461.4297,506.0813 1460.7449,507.148 Q1460.0601,508.2146 1460.0601,510.3147 Q1460.0601,512.4065 1460.7449,513.4732 Q1461.4297,514.5398 1462.7744,514.5398 Q1463.4053,514.5398 1463.9988,514.2701 Q1464.5923,514.0003 1465.2231,513.4192 Z " fill="#000000"/><text fill="#000000" font-family="sans-serif" font-size="12" font-style="italic" lengthAdjust="spacing" textLength="65" x="1481.25" y="506.2898">&#171;Resource&#187;</text><text fill="#000000" font-family="sans-serif" font-size="14" lengthAdjust="spacing" textLength="38" x="1494.75" y="522.3563">Rents</text><line style="stroke:#181818;stroke-width:0.5;" x1="1352" x2="1643" y1="530.3094" y2="530.3094"/><line style="stroke:#181818;stroke-width:0.5;" x1="1352" x2="1643" y1="538.3094" y2="538.3094"/><text fill="#000000" font-family="sans-serif" font-size="14" lengthAdjust="spacing" textLength="251" x="1357" y="555.8445">&#171;GET&#187; +getRentsByCarRental() : Rent</text><text fill="#000000" font-family="sans-serif" font-size="14" lengthAdjust="spacing" textLength="281" x="1357" y="572.3328">&#171;POST&#187; +createRentForCarRental() : Rent</text></g><!--class User--><g id="elem_User"><rect codeLine="65" fill="#F1F1F1" height="122.5742" id="User" rx="2.5" ry="2.5" style="stroke:#181818;stroke-width:0.5;" width="127" x="920.5" y="589.1983"/><ellipse cx="935.5" cy="609.5088" fill="#ADD1B2" rx="11" ry="11" style="stroke:#181818;stroke-width:1.0;"/><path d="M937.9731,615.6519 Q937.3921,615.9507 936.7529,616.1001 Q936.1138,616.2496 935.4082,616.2496 Q932.9014,616.2496 931.5815,614.5977 Q930.2617,612.9458 930.2617,609.8247 Q930.2617,606.6954 931.5815,605.0435 Q932.9014,603.3916 935.4082,603.3916 Q936.1138,603.3916 936.7612,603.5411 Q937.4087,603.6905 937.9731,603.9893 L937.9731,606.712 Q937.3423,606.1309 936.7488,605.8611 Q936.1553,605.5913 935.5244,605.5913 Q934.1797,605.5913 933.4949,606.658 Q932.8101,607.7246 932.8101,609.8247 Q932.8101,611.9165 933.4949,612.9832 Q934.1797,614.0498 935.5244,614.0498 Q936.1553,614.0498 936.7488,613.7801 Q937.3423,613.5103 937.9731,612.9292 Z " fill="#000000"/><text fill="#000000" font-family="sans-serif" font-size="12" font-style="italic" lengthAdjust="spacing" textLength="99" x="947.5" y="605.7998">&#171;Representation&#187;</text><text fill="#000000" font-family="sans-serif" font-size="14" lengthAdjust="spacing" textLength="31" x="981.5" y="621.8663">User</text><line style="stroke:#181818;stroke-width:0.5;" x1="921.5" x2="1046.5" y1="629.8194" y2="629.8194"/><text fill="#000000" font-family="sans-serif" font-size="14" lengthAdjust="spacing" textLength="46" x="926.5" y="647.3545">-name</text><text fill="#000000" font-family="sans-serif" font-size="14" lengthAdjust="spacing" textLength="45" x="926.5" y="663.8428">-email</text><text fill="#000000" font-family="sans-serif" font-size="14" lengthAdjust="spacing" textLength="35" x="926.5" y="680.3311">-role</text><text fill="#000000" font-family="sans-serif" font-size="14" lengthAdjust="spacing" textLength="74" x="926.5" y="696.8194">-createdAt</text><line style="stroke:#181818;stroke-width:0.5;" x1="921.5" x2="1046.5" y1="703.7725" y2="703.7725"/></g><!--class CarRentalRep--><g id="elem_CarRentalRep"><rect fill="#F1F1F1" height="48" id="CarRentalRep" rx="2.5" ry="2.5" style="stroke:#181818;stroke-width:0.5;" width="125" x="1435" y="406.4883"/><ellipse cx="1450" cy="422.4883" fill="#ADD1B2" rx="11" ry="11" style="stroke:#181818;stroke-width:1.0;"/><path d="M1452.4731,428.6313 Q1451.8921,428.9302 1451.2529,429.0796 Q1450.6138,429.229 1449.9082,429.229 Q1447.4014,429.229 1446.0815,427.5771 Q1444.7617,425.9253 1444.7617,422.8042 Q1444.7617,419.6748 1446.0815,418.0229 Q1447.4014,416.3711 1449.9082,416.3711 Q1450.6138,416.3711 1451.2612,416.5205 Q1451.9087,416.6699 1452.4731,416.9688 L1452.4731,419.6914 Q1451.8423,419.1104 1451.2488,418.8406 Q1450.6553,418.5708 1450.0244,418.5708 Q1448.6797,418.5708 1447.9949,419.6375 Q1447.3101,420.7041 1447.3101,422.8042 Q1447.3101,424.896 1447.9949,425.9626 Q1448.6797,427.0293 1450.0244,427.0293 Q1450.6553,427.0293 1451.2488,426.7595 Q1451.8423,426.4897 1452.4731,425.9087 Z " fill="#000000"/><text fill="#000000" font-family="sans-serif" font-size="14" lengthAdjust="spacing" textLength="93" x="1464" y="427.7793">CarRentalRep</text><line style="stroke:#181818;stroke-width:0.5;" x1="1436" x2="1559" y1="438.4883" y2="438.4883"/><line style="stroke:#181818;stroke-width:0.5;" x1="1436" x2="1559" y1="446.4883" y2="446.4883"/></g><!--class RentRep--><g id="elem_RentRep"><rect fill="#F1F1F1" height="48" id="RentRep" rx="2.5" ry="2.5" style="stroke:#181818;stroke-width:0.5;" width="89" x="1742" y="244.4883"/><ellipse cx="1757" cy="260.4883" fill="#ADD1B2" rx="11" ry="11" style="stroke:#181818;stroke-width:1.0;"/><path d="M1759.4731,266.6313 Q1758.8921,266.9302 1758.2529,267.0796 Q1757.6138,267.229 1756.9082,267.229 Q1754.4014,267.229 1753.0815,265.5771 Q1751.7617,263.9253 1751.7617,260.8042 Q1751.7617,257.6748 1753.0815,256.0229 Q1754.4014,254.3711 1756.9082,254.3711 Q1757.6138,254.3711 1758.2612,254.5205 Q1758.9087,254.6699 1759.4731,254.9688 L1759.4731,257.6914 Q1758.8423,257.1104 1758.2488,256.8406 Q1757.6553,256.5708 1757.0244,256.5708 Q1755.6797,256.5708 1754.9949,257.6375 Q1754.3101,258.7041 1754.3101,260.8042 Q1754.3101,262.896 1754.9949,263.9626 Q1755.6797,265.0293 1757.0244,265.0293 Q1757.6553,265.0293 1758.2488,264.7595 Q1758.8423,264.4897 1759.4731,263.9087 Z " fill="#000000"/><text fill="#000000" font-family="sans-serif" font-size="14" lengthAdjust="spacing" textLength="57" x="1771" y="265.7793">RentRep</text><line style="stroke:#181818;stroke-width:0.5;" x1="1743" x2="1830" y1="276.4883" y2="276.4883"/><line style="stroke:#181818;stroke-width:0.5;" x1="1743" x2="1830" y1="284.4883" y2="284.4883"/></g><!--link App to AuthRegister--><g id="link_App_AuthRegister"><path codeLine="93" d="M92.71,463.0883 C101.72,508.6783 125.78,597.6383 182,646.4883 C266.98,720.3283 391.5989,745.0797 478.7489,753.6697 " fill="none" id="App-to-AuthRegister" style="stroke:#181818;stroke-width:1.0;"/><polygon fill="#181818" points="484.72,754.2583,476.1558,749.3948,479.7441,753.7678,475.371,757.3562,484.72,754.2583" style="stroke:#181818;stroke-width:1.0;"/><text fill="#000000" font-family="sans-serif" font-size="13" lengthAdjust="spacing" textLength="183" x="204" y="643.0566">/api/v1/auth/register &#171;Path&#187;</text></g><!--link App to AuthLogin--><g id="link_App_AuthLogin"><path codeLine="94" d="M108.46,463.1383 C125.71,485.3383 152.3,515.2683 182,533.4883 C279.82,593.4783 404.3302,623.252 487.6502,637.862 " fill="none" id="App-to-AuthLogin" style="stroke:#181818;stroke-width:1.0;"/><polygon fill="#181818" points="493.56,638.8983,485.3861,633.404,488.6351,638.0347,484.0044,641.2838,493.56,638.8983" style="stroke:#181818;stroke-width:1.0;"/><text fill="#000000" font-family="sans-serif" font-size="13" lengthAdjust="spacing" textLength="167" x="212" y="530.0566">/api/v1/auth/login &#171;Path&#187;</text></g><!--link App to AuthLogout--><g id="link_App_AuthLogout"><path codeLine="95" d="M152.36,452.0783 C162.26,454.6483 172.39,457.1983 182,459.4883 C289.48,485.0983 408.5654,509.5874 488.3254,525.4574 " fill="none" id="App-to-AuthLogout" style="stroke:#181818;stroke-width:1.0;"/><polygon fill="#181818" points="494.21,526.6283,486.1636,520.9489,489.3061,525.6525,484.6024,528.7951,494.21,526.6283" style="stroke:#181818;stroke-width:1.0;"/><text fill="#000000" font-family="sans-serif" font-size="13" lengthAdjust="spacing" textLength="176" x="207.5" y="456.0566">/api/v1/auth/logout &#171;Path&#187;</text></g><!--link App to AuthMe--><g id="link_App_AuthMe"><path codeLine="96" d="M152.48,434.4883 C240.6,434.4883 392.6,434.4883 488.57,434.4883 " fill="none" id="App-to-AuthMe" style="stroke:#181818;stroke-width:1.0;"/><polygon fill="#181818" points="494.57,434.4883,485.57,430.4883,489.57,434.4883,485.57,438.4883,494.57,434.4883" style="stroke:#181818;stroke-width:1.0;"/><text fill="#000000" font-family="sans-serif" font-size="13" lengthAdjust="spacing" textLength="154" x="218.5" y="431.0566">/api/v1/auth/me &#171;Path&#187;</text></g><!--link App to AuthResetPassword--><g id="link_App_AuthResetPassword"><path codeLine="97" d="M152.36,416.8983 C162.26,414.3283 172.39,411.7783 182,409.4883 C276.24,387.0383 378.0283,365.724 456.8983,349.824 " fill="none" id="App-to-AuthResetPassword" style="stroke:#181818;stroke-width:1.0;"/><polygon fill="#181818" points="462.78,348.6383,453.167,346.4958,457.8786,349.6264,454.748,354.338,462.78,348.6383" style="stroke:#181818;stroke-width:1.0;"/><text fill="#000000" font-family="sans-serif" font-size="13" lengthAdjust="spacing" textLength="225" x="183" y="356.8766">/api/v1/auth/resetPassword &#171;Path&#187;</text></g><!--link App to CarRentals--><g id="link_App_CarRentals"><path codeLine="99" d="M108.55,405.9883 C125.86,383.8783 152.47,353.9783 182,335.4883 C260.37,286.4183 353.8459,256.4594 433.0859,237.4294 " fill="none" id="App-to-CarRentals" style="stroke:#181818;stroke-width:1.0;"/><polygon fill="#181818" points="438.92,236.0283,429.2348,234.2405,434.0582,237.1959,431.1029,242.0193,438.92,236.0283" style="stroke:#181818;stroke-width:1.0;"/><text fill="#000000" font-family="sans-serif" font-size="13" lengthAdjust="spacing" textLength="165" x="213" y="240.4366">/api/v1/carRentals &#171;Path&#187;</text></g><!--link CarRentals to CarRental--><g id="link_CarRentals_CarRental"><path codeLine="100" d="M680.18,255.7183 C691.67,261.1983 703.14,266.8483 714,272.4883 C758.23,295.4383 800.2447,319.2455 842.5447,344.2455 " fill="none" id="CarRentals-to-CarRental" style="stroke:#181818;stroke-width:1.0;"/><polygon fill="#181818" points="847.71,347.2983,841.9972,339.2756,843.4056,344.7543,837.9268,346.1626,847.71,347.2983" style="stroke:#181818;stroke-width:1.0;"/><text fill="#000000" font-family="sans-serif" font-size="13" lengthAdjust="spacing" textLength="72" x="745" y="288.9966">/{id} &#171;Path&#187;</text></g><!--link App to Rents--><g id="link_App_Rents"><path codeLine="102" d="M92.34,406.0283 C100.92,359.7283 124.47,268.2483 182,218.4883 C379.79,47.3983 709.3506,74.388 876.3706,102.048 " fill="none" id="App-to-Rents" style="stroke:#181818;stroke-width:1.0;"/><polygon fill="#181818" points="882.29,103.0283,874.0645,97.6116,877.3572,102.2114,872.7574,105.5041,882.29,103.0283" style="stroke:#181818;stroke-width:1.0;"/><text fill="#000000" font-family="sans-serif" font-size="13" lengthAdjust="spacing" textLength="132" x="510.5" y="78.8666">/api/v1/rents &#171;Path&#187;</text></g><!--link Rents to Rent--><g id="link_Rents_Rent"><path codeLine="103" d="M1085.75,152.0483 C1173.5,176.9283 1294.5675,211.2419 1384.0275,236.6019 " fill="none" id="Rents-to-Rent" style="stroke:#181818;stroke-width:1.0;"/><polygon fill="#181818" points="1389.8,238.2383,1382.2321,231.9353,1384.9895,236.8746,1380.0503,239.6321,1389.8,238.2383" style="stroke:#181818;stroke-width:1.0;"/><text fill="#000000" font-family="sans-serif" font-size="13" lengthAdjust="spacing" textLength="72" x="1199.5" y="166.9566">/{id} &#171;Path&#187;</text></g><!--link CarRental to NestedRents--><g id="link_CarRental_NestedRents"><path codeLine="105" d="M1120.39,458.0183 C1191.28,472.4283 1272.2704,488.8925 1344.6504,503.6125 " fill="none" id="CarRental-to-NestedRents" style="stroke:#181818;stroke-width:1.0;"/><polygon fill="#181818" points="1350.53,504.8083,1342.5077,499.0949,1345.6303,503.8118,1340.9134,506.9344,1350.53,504.8083" style="stroke:#181818;stroke-width:1.0;"/><text fill="#000000" font-family="sans-serif" font-size="13" lengthAdjust="spacing" textLength="169" x="1151" y="460.6966">/{carRentalId}/rents &#171;Path&#187;</text></g><!--link AuthRegister to User--><g id="link_AuthRegister_User"><path codeLine="109" d="M668.25,734.3183 C744.94,713.8883 846.9922,686.7129 914.4422,668.7429 " fill="none" id="AuthRegister-to-User" style="stroke:#181818;stroke-width:1.0;stroke-dasharray:7.0,7.0;"/><polygon fill="#181818" points="920.24,667.1983,910.5136,665.6501,915.4085,668.4855,912.5731,673.3804,920.24,667.1983" style="stroke:#181818;stroke-width:1.0;"/><text fill="#000000" font-family="sans-serif" font-size="13" lengthAdjust="spacing" textLength="36" x="763" y="691.3866">&#171;use&#187;</text></g><!--link AuthLogin to User--><g id="link_AuthLogin_User"><path codeLine="110" d="M659.07,650.4883 C736.09,650.4883 843.95,650.4883 914.15,650.4883 " fill="none" id="AuthLogin-to-User" style="stroke:#181818;stroke-width:1.0;stroke-dasharray:7.0,7.0;"/><polygon fill="#181818" points="920.15,650.4883,911.15,646.4883,915.15,650.4883,911.15,654.4883,920.15,650.4883" style="stroke:#181818;stroke-width:1.0;"/><text fill="#000000" font-family="sans-serif" font-size="13" lengthAdjust="spacing" textLength="36" x="763" y="647.0566">&#171;use&#187;</text></g><!--link AuthMe to User--><g id="link_AuthMe_User"><path codeLine="111" d="M658.22,463.8683 C676.8,471.3283 696.3,479.7283 714,488.4883 C787.17,524.6883 861.7554,570.7044 915.2354,605.3744 " fill="none" id="AuthMe-to-User" style="stroke:#181818;stroke-width:1.0;stroke-dasharray:7.0,7.0;"/><polygon fill="#181818" points="920.27,608.6383,914.894,600.3861,916.0745,605.9184,910.5422,607.0989,920.27,608.6383" style="stroke:#181818;stroke-width:1.0;"/><text fill="#000000" font-family="sans-serif" font-size="13" lengthAdjust="spacing" textLength="36" x="763" y="500.5666">&#171;use&#187;</text></g><!--link CarRentals to CarRentalRep--><g id="link_CarRentals_CarRentalRep"><path codeLine="113" d="M714.47,226.4483 C825.09,241.0683 984.14,266.0283 1120,302.4883 C1225.81,330.8883 1246.97,354.1583 1351,388.4883 C1378.21,397.4683 1402.8546,404.792 1428.8146,412.102 " fill="none" id="CarRentals-to-CarRentalRep" style="stroke:#181818;stroke-width:1.0;stroke-dasharray:7.0,7.0;"/><polygon fill="#181818" points="1434.59,413.7283,1427.0111,407.4386,1429.7772,412.3731,1424.8427,415.1391,1434.59,413.7283" style="stroke:#181818;stroke-width:1.0;"/><text fill="#000000" font-family="sans-serif" font-size="13" lengthAdjust="spacing" textLength="36" x="966" y="243.0566">&#171;use&#187;</text></g><!--link CarRental to CarRentalRep--><g id="link_CarRental_CarRentalRep"><path codeLine="114" d="M1120.39,430.4883 C1222.36,430.4883 1351.38,430.4883 1428.82,430.4883 " fill="none" id="CarRental-to-CarRentalRep" style="stroke:#181818;stroke-width:1.0;stroke-dasharray:7.0,7.0;"/><polygon fill="#181818" points="1434.82,430.4883,1425.82,426.4883,1429.82,430.4883,1425.82,434.4883,1434.82,430.4883" style="stroke:#181818;stroke-width:1.0;"/><text fill="#000000" font-family="sans-serif" font-size="13" lengthAdjust="spacing" textLength="36" x="1217.5" y="427.0566">&#171;use&#187;</text></g><!--link Rents to RentRep--><g id="link_Rents_RentRep"><path codeLine="116" d="M1085.94,107.5083 C1218.89,90.8183 1457.64,76.0683 1644,148.4883 C1695.34,168.4383 1737.3225,210.7251 1762.1325,239.6351 " fill="none" id="Rents-to-RentRep" style="stroke:#181818;stroke-width:1.0;stroke-dasharray:7.0,7.0;"/><polygon fill="#181818" points="1766.04,244.1883,1763.2143,234.7535,1762.7838,240.3939,1757.1433,239.9635,1766.04,244.1883" style="stroke:#181818;stroke-width:1.0;"/><text fill="#000000" font-family="sans-serif" font-size="13" lengthAdjust="spacing" textLength="36" x="1479.5" y="91.3866">&#171;use&#187;</text></g><!--link Rent to RentRep--><g id="link_Rent_RentRep"><path codeLine="117" d="M1605.37,268.4883 C1652.54,268.4883 1699.38,268.4883 1735.56,268.4883 " fill="none" id="Rent-to-RentRep" style="stroke:#181818;stroke-width:1.0;stroke-dasharray:7.0,7.0;"/><polygon fill="#181818" points="1741.56,268.4883,1732.56,264.4883,1736.56,268.4883,1732.56,272.4883,1741.56,268.4883" style="stroke:#181818;stroke-width:1.0;"/><text fill="#000000" font-family="sans-serif" font-size="13" lengthAdjust="spacing" textLength="36" x="1675" y="265.0566">&#171;use&#187;</text></g><!--link NestedRents to RentRep--><g id="link_NestedRents_RentRep"><path codeLine="118" d="M1619.93,489.2183 C1628.42,484.1283 1636.55,478.5583 1644,472.4883 C1706.99,421.1783 1751.3197,340.2159 1771.6897,298.2559 " fill="none" id="NestedRents-to-RentRep" style="stroke:#181818;stroke-width:1.0;stroke-dasharray:7.0,7.0;"/><polygon fill="#181818" points="1774.31,292.8583,1766.7811,299.2078,1772.1264,297.3563,1773.9779,302.7015,1774.31,292.8583" style="stroke:#181818;stroke-width:1.0;"/><text fill="#000000" font-family="sans-serif" font-size="13" lengthAdjust="spacing" textLength="36" x="1675" y="399.6866">&#171;use&#187;</text></g><!--SRC=[ZLLHRzem47xFhx1usQQ9ihsY3Yc5R4MYBIBm0xpu5go6E78CKrVnttUsqyH9J807PFk- - -xy-UwImHz5b22Iftj569UGA2xoe7pbUK4bFP0aesKPAYNvxwE2PIBocFy3yYq855SPa0taYcPaJYLv40BTKZBNBcJ1QOe4GL3Gv9McG4OED7uh5Hn6v3q8J00oaiOuJgWSquAF22r9M1Ja_Xx_CvvGdTPi5WIVo8_kZuIxxMF_kAOEZsfl2N6nWPHZR8dC6oZ5KIOmcs4U10_MB_4MDrzbXVdyXKp9hWGPdFraAv7oV8Wfqu1RQCHH-NX-HHyq230y9y7P9Pud6E18GJt1rLJG6zGQp_yAoOOrSe2jp7mlD0ytP1CzRyDLVFcXi31iYPJ3rsXm9cwzRUMNIA0AQbi7UUx5l36aB-BEe8u56mYeWOje5MqZZMMGGHSx99-MRa0upN95CmCnSVJAevG-Rkndb_ewSuVO5QHlxifG8pgbRL8sXVaCs8tirbi-lBM57RZmJo4zs8kFiDv4iIxYxVBbUU0vT7-PF0lT9CXjPvV9TanoUW2pW0FbcLb9aTaZcnaBrQK27MQaZA6zD6k64qpoH9bD8SM9vub55Q94kaGmkrLG9O533oT__-MzCP52gWKcQw-IitfzrDF5NCOfVhFhNz4dyphSFdh5rP-3yNZMdk9JCi7FnUJqVKBnU2ARwRwcQeyV3DVBZkkEIrRDS3zUp-M-WvtM7W-Sm1tq0Vp8zg3jNQCzXIl_ci2Pb8rduexFoiC1jloqspjdPm-tRRE6LbPjL-6i-GFeuMbYQ93RkXfR9xbavowrjnnsSUGj1hS8xkvcjkccI8RrfwMkd_k24L_AOt45q-PwYstWm9ex3e0ggJH2hzf68vxVv4hcHs3h_0S0]--></g></svg>