<?xml version="1.0" encoding="us-ascii" standalone="no"?><svg xmlns="http://www.w3.org/2000/svg" xmlns:xlink="http://www.w3.org/1999/xlink" contentStyleType="text/css" height="514px" preserveAspectRatio="none" style="width:389px;height:514px;background:#FFFFFF;" version="1.1" viewBox="0 0 389 514" width="389px" zoomAndPan="magnify"><defs/><g><!--cluster RCBSystem--><g id="cluster_RCBSystem"><rect fill="none" height="501" rx="2.5" ry="2.5" style="stroke:#181818;stroke-width:1.0;" width="212" x="81" y="7"/><text fill="#000000" font-family="sans-serif" font-size="14" font-weight="bold" lengthAdjust="spacing" textLength="196" x="89" y="22.5352">Rental Car Booking System</text></g><g id="elem_registerLogin"><ellipse cx="186.5004" cy="474.9981" fill="#F1F1F1" rx="72.9404" ry="16.9881" style="stroke:#181818;stroke-width:0.5;"/><text fill="#000000" font-family="sans-serif" font-size="14" lengthAdjust="spacing" textLength="101" x="135.6941" y="478.3731">Register/Login</text></g><g id="elem_logout"><ellipse cx="186.4972" cy="408.0047" fill="#F1F1F1" rx="45.4472" ry="14.6647" style="stroke:#181818;stroke-width:0.5;"/><text fill="#000000" font-family="sans-serif" font-size="14" lengthAdjust="spacing" textLength="48" x="161.5568" y="411.5542">Logout</text></g><g id="elem_changePassword"><ellipse cx="186.4972" cy="331.998" fill="#F1F1F1" rx="57.4472" ry="26.318" style="stroke:#181818;stroke-width:0.5;"/><text fill="#000000" font-family="sans-serif" font-size="14" lengthAdjust="spacing" textLength="53" x="159.9972" y="327.0448">Change</text><text fill="#000000" font-family="sans-serif" font-size="14" lengthAdjust="spacing" textLength="65" x="153.9972" y="343.5331">Password</text></g><g id="elem_viewCarRentals"><ellipse cx="186.4996" cy="243.998" fill="#F1F1F1" rx="66.6396" ry="26.318" style="stroke:#181818;stroke-width:0.5;"/><text fill="#000000" font-family="sans-serif" font-size="14" lengthAdjust="spacing" textLength="32" x="170.4996" y="239.0448">View</text><text fill="#000000" font-family="sans-serif" font-size="14" lengthAdjust="spacing" textLength="78" x="147.4996" y="255.5331">Car Rentals</text></g><g id="elem_manageCarRental"><ellipse cx="186.4999" cy="155.998" fill="#F1F1F1" rx="61.6899" ry="26.318" style="stroke:#181818;stroke-width:0.5;"/><text fill="#000000" font-family="sans-serif" font-size="14" lengthAdjust="spacing" textLength="54" x="159.4999" y="151.0448">Manage</text><text fill="#000000" font-family="sans-serif" font-size="14" lengthAdjust="spacing" textLength="71" x="150.9999" y="167.5331">Car Rental</text></g><g id="elem_manageRent"><ellipse cx="186.499" cy="67.998" fill="#F1F1F1" rx="49.669" ry="26.318" style="stroke:#181818;stroke-width:0.5;"/><text fill="#000000" font-family="sans-serif" font-size="14" lengthAdjust="spacing" textLength="54" x="159.499" y="63.0448">Manage</text><text fill="#000000" font-family="sans-serif" font-size="14" lengthAdjust="spacing" textLength="31" x="170.999" y="79.5331">Rent</text></g><!--entity user--><g id="elem_user"><ellipse cx="21.5" cy="302.26" fill="#F1F1F1" rx="8" ry="8" style="stroke:#181818;stroke-width:0.5;"/><path d="M21.5,310.26 L21.5,337.26 M8.5,318.26 L34.5,318.26 M21.5,337.26 L8.5,352.26 M21.5,337.26 L34.5,352.26 " fill="none" style="stroke:#181818;stroke-width:0.5;"/><text fill="#000000" font-family="sans-serif" font-size="14" lengthAdjust="spacing" textLength="31" x="6" y="367.2952">User</text></g><!--entity admin--><g id="elem_admin"><ellipse cx="359.5" cy="302.26" fill="#F1F1F1" rx="8" ry="8" style="stroke:#181818;stroke-width:0.5;"/><path d="M359.5,310.26 L359.5,337.26 M346.5,318.26 L372.5,318.26 M359.5,337.26 L346.5,352.26 M359.5,337.26 L372.5,352.26 " fill="none" style="stroke:#181818;stroke-width:0.5;"/><text fill="#000000" font-family="sans-serif" font-size="14" lengthAdjust="spacing" textLength="45" x="337" y="367.2952">Admin</text></g><!--link user to registerLogin--><g id="link_user_registerLogin"><path d="M31.99,370.56 C39.53,393.67 52.34,421.97 73,440 C87.41,452.58 106.3,460.63 124.48,465.8 " fill="none" id="user-registerLogin" style="stroke:#181818;stroke-width:1.0;"/></g><!--link user to logout--><g id="link_user_logout"><path d="M37.07,347.82 C46.5,357.21 59.51,368.68 73,376 C95.58,388.25 123.31,396.2 145.6,401.12 " fill="none" id="user-logout" style="stroke:#181818;stroke-width:1.0;"/></g><!--link user to changePassword--><g id="link_user_changePassword"><path d="M37.25,332 C57.78,332 96.12,332 128.67,332 " fill="none" id="user-changePassword" style="stroke:#181818;stroke-width:1.0;"/></g><!--link user to viewCarRentals--><g id="link_user_viewCarRentals"><path d="M37.33,316.63 C46.86,307.4 59.87,295.95 73,288 C91.65,276.7 113.72,267.32 133.34,260.16 " fill="none" id="user-viewCarRentals" style="stroke:#181818;stroke-width:1.0;"/></g><!--link user to manageRent--><g id="link_user_manageRent"><path d="M27,293.33 C34.18,237.71 49.83,138.85 73,112 C89.64,92.71 115.83,81.82 138.75,75.7 " fill="none" id="user-manageRent" style="stroke:#181818;stroke-width:1.0;"/></g><!--link registerLogin to admin--><g id="link_registerLogin_admin"><path d="M248.08,465.6 C266.58,460.43 285.98,452.41 301,440 C322.7,422.08 337.34,393.78 346.42,370.64 " fill="none" id="registerLogin-admin" style="stroke:#181818;stroke-width:1.0;"/></g><!--link logout to admin--><g id="link_logout_admin"><path d="M226.67,400.8 C249.19,395.73 277.57,387.73 301,376 C313.7,369.64 326.39,360.33 336.61,351.9 " fill="none" id="logout-admin" style="stroke:#181818;stroke-width:1.0;"/></g><!--link changePassword to admin--><g id="link_changePassword_admin"><path d="M244.44,332 C276.11,332 313.69,332 336.82,332 " fill="none" id="changePassword-admin" style="stroke:#181818;stroke-width:1.0;"/></g><!--link manageCarRental to admin--><g id="link_manageCarRental_admin"><path d="M242.38,167.73 C262.81,174.37 284.91,184.56 301,200 C327.24,225.18 342.23,264.38 350.28,293.53 " fill="none" id="manageCarRental-admin" style="stroke:#181818;stroke-width:1.0;"/></g><!--link manageRent to admin--><g id="link_manageRent_admin"><path d="M234.42,75.81 C257.47,81.95 283.91,92.84 301,112 C346.33,162.82 356.68,245.04 358.61,293.27 " fill="none" id="manageRent-admin" style="stroke:#181818;stroke-width:1.0;"/></g><!--SRC=[RP712i8m38RlVOgmk_WCkgk2A7ho4hPQYriBRQU8-EussUfiSQVao__p9rqdBm621QVLDK2hdMo2jaO8R89rK1szT1MWXo4MWgPeL2UXsaiJi8CQ7QojlMcZuF3qGVQitjVhiOENWFX5TuEURKf7xfORgxHXhPiGarmTaHq2gpekyt5zZSl8izcXzm_hMXOs31FA3ISj7sT3Eu_hUtRS8uriGhbZYmOfOlQmfMVyDVttqEn7JQru2q4l2Oj5SNUYqvsfBQv9k5WvuP-Wz0DNRJ-zCr8bibJoZ7YCdViyT-R5uUM0wCm-]--></g></svg>